<svg width="41" height="52" viewBox="0 0 41 52" fill="none" xmlns="http://www.w3.org/2000/svg">
<path d="M0 41.6161L3.53553 38.0806L7.39248 37.7591L7.07107 41.6161L3.53553 45.1516L0 41.6161Z" fill="#FFAB00"/>
<path d="M36.6248 5L33.0892 8.53553L32.7678 12.3925L36.6248 12.0711L40.1603 8.53553L36.6248 5Z" fill="#FFAB00"/>
<path fill-rule="evenodd" clip-rule="evenodd" d="M18.8362 50.907C19.2083 51.2622 19.7917 51.2622 20.1638 50.907C21.416 49.7116 22.5796 48.4243 23.6439 47.0559L19.8748 42.2817C19.6774 42.0317 19.2997 42.0275 19.0969 42.2731L15.2544 46.9245C16.3461 48.342 17.544 49.6734 18.8362 50.907ZM20.6597 41.662L24.2665 46.2307C28.5005 40.4432 31 33.3069 31 25.5867C31 15.6276 26.8404 6.63994 20.1638 0.266402C19.7917 -0.0888004 19.2083 -0.0888006 18.8362 0.266401C12.1596 6.63994 8 15.6276 8 25.5867C8 33.2489 10.4621 40.336 14.6384 46.1L18.3259 41.6362C18.9345 40.8995 20.0676 40.912 20.6597 41.662ZM25 25.5C25 27.6654 24.3789 29.5834 23.4257 30.9337C22.4706 32.2867 21.2448 33 20 33C18.7552 33 17.5294 32.2867 16.5743 30.9337C15.6211 29.5834 15 27.6654 15 25.5C15 23.3346 15.6211 21.4166 16.5743 20.0663C17.5294 18.7133 18.7552 18 20 18C21.2448 18 22.4706 18.7133 23.4257 20.0663C24.3789 21.4166 25 23.3346 25 25.5ZM26 25.5C26 30.1944 23.3137 34 20 34C16.6863 34 14 30.1944 14 25.5C14 20.8056 16.6863 17 20 17C23.3137 17 26 20.8056 26 25.5Z" fill="#FFAB00"/>
</svg>
