<svg width="54" height="52" viewBox="0 0 54 52" fill="none" xmlns="http://www.w3.org/2000/svg">
<path d="M50.2326 4V40.2791C50.2326 44.5946 46.7342 48.093 42.4186 48.093H23.4419" stroke="#0062FC" stroke-width="6.69767" stroke-linecap="round"/>
<rect x="17.8604" y="43.0698" width="12.2791" height="8.93023" rx="3.34884" fill="#0062FC"/>
<path fill-rule="evenodd" clip-rule="evenodd" d="M41.8364 40.7014C42.1833 40.5121 42.4186 40.144 42.4186 39.7209V31.907C42.4186 26.9749 38.4204 22.9767 33.4884 22.9767H26.8009L41.8364 40.7014ZM23.6991 22.9767L38.8497 40.8372H30.1395L24.6936 35.3912C23.3858 34.0834 21.2654 34.0834 19.9576 35.3912L14.5116 40.8372H11.5453L0.811085 28.1831C2.2227 25.1104 5.3273 22.9767 8.93023 22.9767H23.6991ZM0.0584313 30.8798C0.019834 31.2169 0 31.5596 0 31.907V39.7209C0 40.3374 0.499776 40.8372 1.11628 40.8372H8.50505L0.0584313 30.8798Z" fill="#0062FC"/>
</svg>
